<svg width="46" height="46" viewBox="0 0 46 46" fill="none" xmlns="http://www.w3.org/2000/svg">
<rect width="46" height="46" rx="13" fill="#0328EE"/>
<g clip-path="url(#clip0_3_10637)">
<path d="M22.7721 28.1768C16.4231 28.1768 11.0024 29.1918 11.0024 33.2473C11.0024 37.3012 16.3901 38.3528 22.7721 38.3528C29.1195 38.3528 34.5418 37.3378 34.5418 33.2823C34.5418 29.2268 29.1541 28.1768 22.7721 28.1768Z" fill="white"/>
<path opacity="0.4" d="M22.7717 24.3141C27.0945 24.3141 30.5596 20.8043 30.5596 16.4259C30.5596 12.0475 27.0945 8.53613 22.7717 8.53613C18.449 8.53613 14.9839 12.0475 14.9839 16.4259C14.9839 20.8043 18.449 24.3141 22.7717 24.3141Z" fill="white"/>
</g>
<defs>
<clipPath id="clip0_3_10637">
<rect width="24" height="31" fill="white" transform="translate(11 8)"/>
</clipPath>
</defs>
</svg>
