<svg width="68" height="69" viewBox="0 0 68 69" fill="none" xmlns="http://www.w3.org/2000/svg">
<rect y="0.984375" width="68" height="68" rx="20" fill="#0328EE"/>
<g clip-path="url(#clip0_40_19814)">
<path opacity="0.4" d="M56.1309 34.7281C56.1309 47.0928 46.1079 57.1158 33.7432 57.1158C21.3784 57.1158 11.3555 47.0928 11.3555 34.7281C11.3555 22.3656 21.3784 12.3403 33.7432 12.3403C46.1079 12.3403 56.1309 22.3656 56.1309 34.7281Z" fill="white"/>
<path d="M42.3853 27.3512L38.7585 38.8137C38.6242 39.2838 38.2436 39.6644 37.7734 39.801L26.3557 43.3808C25.5945 43.6293 24.8557 42.8882 25.102 42.1271L28.684 30.6422C28.8184 30.172 29.1989 29.8138 29.6691 29.6571L41.1316 26.0751C41.9152 25.8288 42.6316 26.5676 42.3853 27.3512Z" fill="white"/>
</g>
<defs>
<clipPath id="clip0_40_19814">
<rect width="46" height="46" fill="white" transform="translate(11 11.9844)"/>
</clipPath>
</defs>
</svg>
