<svg width="12" height="12" viewBox="0 0 12 12" fill="none" xmlns="http://www.w3.org/2000/svg">
<path d="M2.21654 0.866831C2.09713 0.866831 1.97759 0.912316 1.88659 1.00355L0.953256 1.93688C0.77079 2.11935 0.77079 2.41478 0.953256 2.59678L4.35664 6.00016L0.953256 9.40355C0.77079 9.58601 0.77079 9.88144 0.953256 10.0634L1.88659 10.9968C2.06906 11.1792 2.36449 11.1792 2.54649 10.9968L5.94987 7.59339L9.35326 10.9968C9.53526 11.1792 9.83115 11.1792 10.0132 10.9968L10.9465 10.0634C11.129 9.88098 11.129 9.58555 10.9465 9.40355L7.5431 6.00016L10.9465 2.59678C11.129 2.41478 11.129 2.11888 10.9465 1.93688L10.0132 1.00355C9.83068 0.821083 9.53526 0.821083 9.35326 1.00355L5.94987 4.40693L2.54649 1.00355C2.45525 0.912316 2.33595 0.866831 2.21654 0.866831Z" fill="white"/>
</svg>
