<svg width="46" height="46" viewBox="0 0 46 46" fill="none" xmlns="http://www.w3.org/2000/svg">
<rect width="46" height="46" rx="13" fill="#0328EE"/>
<g clip-path="url(#clip0_3_19601)">
<path d="M23.2422 7.88867C14.3206 7.88867 7.85596 15.1672 7.85596 23.2442C7.85596 25.8239 8.60838 28.4804 9.92895 30.9066C10.1746 31.3058 10.2053 31.8125 10.0364 32.2886L9.00762 35.7282C8.77729 36.5574 9.48364 37.1716 10.2668 36.9259L13.3686 36.0046C14.2131 35.7282 14.8734 36.0814 15.6581 36.5574C17.9 37.878 20.6932 38.5536 23.2115 38.5536C30.8278 38.5536 38.567 32.6724 38.567 23.1981C38.567 15.029 31.9641 7.88867 23.2422 7.88867Z" fill="white"/>
<path fill-rule="evenodd" clip-rule="evenodd" d="M16.1022 25.2259C15.0273 25.2259 14.1367 24.3353 14.1367 23.2604C14.1367 22.1702 15.012 21.2949 16.1022 21.2949C17.1924 21.2949 18.0677 22.1702 18.0677 23.2604C18.0677 24.3353 17.1924 25.2105 16.1022 25.2259ZM23.1816 25.2261C22.0914 25.2108 21.2161 24.3355 21.2161 23.2453C21.2161 22.1704 22.1067 21.2798 23.1816 21.2951C24.2719 21.2951 25.1471 22.1704 25.1471 23.2606C25.1471 24.3355 24.2719 25.2261 23.1816 25.2261ZM28.2948 23.2608C28.2948 24.3357 29.17 25.2263 30.2603 25.2263C31.3505 25.2263 32.2258 24.3357 32.2258 23.2608C32.2258 22.1706 31.3505 21.2953 30.2603 21.2953C29.17 21.2953 28.2948 22.1706 28.2948 23.2608Z" fill="#0328EE"/>
</g>
<defs>
<clipPath id="clip0_3_19601">
<rect width="32" height="32" fill="white" transform="translate(7 7)"/>
</clipPath>
</defs>
</svg>
