<svg width="68" height="68" viewBox="0 0 68 68" fill="none" xmlns="http://www.w3.org/2000/svg">
<rect width="68" height="68" rx="20" fill="#0328EE"/>
<g opacity="0.84992" clip-path="url(#clip0_3_19436)">
<path opacity="0.4" d="M15.7512 22.5117H39.5484C40.6493 22.5117 41.5429 23.4047 41.5429 24.505C41.5429 25.6053 40.6493 26.4983 39.5484 26.4983H15.7512C14.6503 26.4983 13.7568 25.6053 13.7568 24.505C13.7568 23.4047 14.6503 22.5117 15.7512 22.5117Z" fill="white"/>
<mask id="mask0_3_19436" style="mask-type:alpha" maskUnits="userSpaceOnUse" x="37" y="14" width="18" height="22">
<path fill-rule="evenodd" clip-rule="evenodd" d="M37.4185 35.4653V14H54.5796V35.4653H37.4185Z" fill="white"/>
</mask>
<g mask="url(#mask0_3_19436)">
<path d="M38.7654 14.1836C39.0168 14.1836 39.2646 14.2536 39.4837 14.39L53.7359 23.3662C54.1274 23.6139 54.3663 24.0429 54.3663 24.5059C54.3663 24.969 54.1274 25.398 53.7359 25.6457L39.4837 34.6219C39.0689 34.8821 38.5444 34.8983 38.1153 34.6596C37.6842 34.4226 37.4185 33.9721 37.4185 33.4822V15.5298C37.4185 15.0397 37.6842 14.5892 38.1153 14.3523C38.3181 14.2392 38.5427 14.1836 38.7654 14.1836Z" fill="white"/>
</g>
<path opacity="0.4" d="M52.319 46.0588H28.5218C27.4208 46.0588 26.5273 45.1658 26.5273 44.0655C26.5273 42.9652 27.4208 42.0723 28.5218 42.0723H52.319C53.4198 42.0723 54.3134 42.9652 54.3134 44.0655C54.3134 45.1658 53.4198 46.0588 52.319 46.0588Z" fill="white"/>
<mask id="mask1_3_19436" style="mask-type:alpha" maskUnits="userSpaceOnUse" x="13" y="33" width="18" height="22">
<path fill-rule="evenodd" clip-rule="evenodd" d="M30.5156 33.1055V54.5707H13.3545V33.1055H30.5156Z" fill="white"/>
</mask>
<g mask="url(#mask1_3_19436)">
<path d="M29.1688 54.3879C28.9174 54.3879 28.6696 54.3179 28.4505 54.1816L14.1982 45.2054C13.8067 44.9577 13.5679 44.5287 13.5679 44.0656C13.5679 43.6026 13.8067 43.1736 14.1982 42.9259L28.4505 33.9497C28.8653 33.6894 29.3898 33.6733 29.8189 33.912C30.25 34.1489 30.5157 34.5994 30.5157 35.0894V53.0419C30.5157 53.5318 30.25 53.9823 29.8189 54.2193C29.616 54.3323 29.3915 54.3879 29.1688 54.3879Z" fill="white"/>
</g>
</g>
<defs>
<clipPath id="clip0_3_19436">
<rect width="42" height="41" fill="white" transform="translate(13 14)"/>
</clipPath>
</defs>
</svg>
