<svg width="38" height="38" viewBox="0 0 38 38" fill="none" xmlns="http://www.w3.org/2000/svg">
<rect width="38" height="38" rx="19" fill="#0328EE"/>
<g clip-path="url(#clip0_40_29422)">
<path opacity="0.4" d="M29.2062 23.6255C29.2062 26.5631 26.8315 28.9427 23.8736 28.9532H23.863H13.3569C10.4097 28.9532 8.00311 26.5841 8.00311 23.6465V23.636C8.00311 23.636 8.00947 18.9757 8.01795 16.6319C8.01902 16.1918 8.52789 15.9454 8.87456 16.2191C11.3935 18.2039 15.8981 21.8228 15.9543 21.8702C16.707 22.4693 17.6611 22.8073 18.6365 22.8073C19.6118 22.8073 20.566 22.4693 21.3187 21.8586C21.3748 21.8218 25.7787 18.3113 28.3358 16.2939C28.6836 16.0191 29.1946 16.2655 29.1956 16.7045C29.2062 19.0305 29.2062 23.6255 29.2062 23.6255Z" fill="white"/>
<path d="M28.6497 12.8155C27.7316 11.0971 25.925 10 23.9362 10H13.3559C11.367 10 9.56052 11.0971 8.64243 12.8155C8.43676 13.1998 8.53429 13.6789 8.87672 13.9506L16.7484 20.2039C17.2996 20.6462 17.9675 20.8662 18.6355 20.8662C18.6397 20.8662 18.6428 20.8662 18.6461 20.8662C18.6492 20.8662 18.6534 20.8662 18.6566 20.8662C19.3245 20.8662 19.9925 20.6462 20.5437 20.2039L28.4153 13.9506C28.7578 13.6789 28.8553 13.1998 28.6497 12.8155Z" fill="white"/>
</g>
<defs>
<clipPath id="clip0_40_29422">
<rect width="22" height="19" fill="white" transform="translate(8.00311 10)"/>
</clipPath>
</defs>
</svg>
