<svg width="46" height="46" viewBox="0 0 46 46" fill="none" xmlns="http://www.w3.org/2000/svg">
<rect width="46" height="46" rx="13" fill="#0328EE"/>
<g clip-path="url(#clip0_3_19651)">
<path d="M22.5917 41.1131C32.3073 41.1131 40.1834 33.237 40.1834 23.5214C40.1834 13.8058 32.3073 5.92969 22.5917 5.92969C12.8761 5.92969 5 13.8058 5 23.5214C5 33.237 12.8761 41.1131 22.5917 41.1131Z" fill="white" fill-opacity="0.4"/>
<path d="M26.0349 12.6582C26.0349 12.2128 25.4963 11.9897 25.1814 12.3047L13.7111 23.7749C13.5907 23.8955 13.5087 24.049 13.4755 24.2162C13.4423 24.3833 13.4594 24.5566 13.5246 24.714C13.5898 24.8715 13.7002 25.0061 13.8418 25.1008C13.9835 25.1956 14.15 25.2462 14.3204 25.2464H18.6488C18.9249 25.2464 19.1488 25.4703 19.1488 25.7464V34.3858C19.1488 34.8312 19.6873 35.0543 20.0023 34.7393L31.4726 23.2691C31.593 23.1485 31.675 22.9949 31.7082 22.8278C31.7414 22.6606 31.7243 22.4874 31.6591 22.3299C31.5939 22.1725 31.4835 22.0379 31.3419 21.9431C31.2002 21.8484 31.0337 21.7977 30.8633 21.7976H26.5349C26.2588 21.7976 26.0349 21.5737 26.0349 21.2976V12.6582Z" fill="white"/>
</g>
<defs>
<clipPath id="clip0_3_19651">
<rect width="36" height="37" fill="white" transform="translate(5 5)"/>
</clipPath>
</defs>
</svg>
