<svg width="68" height="69" viewBox="0 0 68 69" fill="none" xmlns="http://www.w3.org/2000/svg">
<rect y="0.984375" width="68" height="68" rx="20" fill="#0328EE"/>
<g clip-path="url(#clip0_40_19790)">
<path d="M34.2329 41.1177C26.9122 41.1177 20.7354 42.3139 20.7354 46.9308C20.7354 51.5495 26.9521 52.7037 34.2329 52.7037C41.5536 52.7037 47.7305 51.5075 47.7305 46.8906C47.7305 42.2719 41.5137 41.1177 34.2329 41.1177Z" fill="white"/>
<path opacity="0.4" d="M34.2337 36.7191C39.1908 36.7191 43.1656 32.7214 43.1656 27.7358C43.1656 22.7482 39.1908 18.7524 34.2337 18.7524C29.2766 18.7524 25.3018 22.7482 25.3018 27.7358C25.3018 32.7214 29.2766 36.7191 34.2337 36.7191Z" fill="white"/>
<path opacity="0.4" d="M53.626 29.8277C54.9085 24.7828 51.1484 20.252 46.3604 20.252C45.8398 20.252 45.342 20.3093 44.8556 20.4067C44.791 20.422 44.7188 20.4545 44.6808 20.5118C44.6371 20.5845 44.6694 20.6819 44.7169 20.745C46.1552 22.7744 46.9817 25.2452 46.9817 27.8976C46.9817 30.4392 46.2236 32.8087 44.8936 34.7751C44.7568 34.9777 44.8784 35.2509 45.1197 35.293C45.4541 35.3522 45.7961 35.3828 46.1457 35.3923C49.6322 35.4841 52.7615 33.2272 53.626 29.8277Z" fill="white"/>
<path d="M57.2782 41.7058C56.6398 40.3375 55.0989 39.3993 52.7562 38.9387C51.6504 38.6674 48.6579 38.2852 45.8744 38.3368C45.8326 38.3425 45.8098 38.3712 45.806 38.3903C45.8003 38.417 45.8117 38.4629 45.8668 38.4916C47.1531 39.1317 52.1254 41.916 51.5003 47.7883C51.4737 48.0424 51.677 48.2622 51.9297 48.224C53.1533 48.0482 56.3016 47.3679 57.2782 45.2486C57.8178 44.1288 57.8178 42.8275 57.2782 41.7058Z" fill="white"/>
<path opacity="0.4" d="M23.8264 20.4072C23.3419 20.3079 22.8422 20.2524 22.3216 20.2524C17.5337 20.2524 13.7736 24.7833 15.058 29.8282C15.9206 33.2277 19.0499 35.4845 22.5363 35.3928C22.8859 35.3833 23.2298 35.3508 23.5623 35.2935C23.8036 35.2514 23.9252 34.9781 23.7884 34.7756C22.4584 32.8073 21.7003 30.4397 21.7003 27.8981C21.7003 25.2438 22.5287 22.773 23.967 20.7455C24.0126 20.6824 24.0468 20.5849 24.0012 20.5123C23.9632 20.4531 23.8929 20.4225 23.8264 20.4072Z" fill="white"/>
<path d="M15.9262 38.9376C13.5835 39.3982 12.0445 40.3364 11.4061 41.7047C10.8646 42.8264 10.8646 44.1277 11.4061 45.2495C12.3827 47.3668 15.531 48.049 16.7546 48.2229C17.0073 48.2611 17.2087 48.0433 17.1821 47.7872C16.557 41.9168 21.5293 39.1326 22.8175 38.4924C22.8707 38.4618 22.8821 38.4179 22.8764 38.3892C22.8726 38.3701 22.8517 38.3414 22.8099 38.3376C20.0245 38.2841 17.0339 38.6663 15.9262 38.9376Z" fill="white"/>
</g>
<defs>
<clipPath id="clip0_40_19790">
<rect width="47" height="35" fill="white" transform="translate(11 17.9844)"/>
</clipPath>
</defs>
</svg>
