<svg width="46" height="46" viewBox="0 0 46 46" fill="none" xmlns="http://www.w3.org/2000/svg">
<rect width="46" height="46" rx="13" fill="#0328EE"/>
<g clip-path="url(#clip0_3_19592)">
<path opacity="0.4" d="M23.211 41.4329C21.8105 41.4329 20.4118 40.9011 19.3427 39.8394L18.0132 38.5099C17.4978 37.9963 16.8075 37.7121 16.0754 37.7103H14.205C11.1817 37.7103 8.72126 35.2498 8.72126 32.2266V30.3544C8.71944 29.624 8.43532 28.9338 7.91991 28.4147L6.61227 27.1089C4.47049 24.9799 4.46139 21.4995 6.59223 19.3559L7.92174 18.0246C8.43532 17.5092 8.71944 16.8189 8.72126 16.0868V14.2182C8.72126 11.1932 11.1817 8.73269 14.205 8.73269H16.0772C16.8075 8.73269 17.496 8.44857 18.015 7.92952L19.3245 6.6237C21.4535 4.48192 24.9321 4.47099 27.0775 6.60366L28.407 7.93317C28.9242 8.44857 29.6126 8.73269 30.343 8.73269H32.2152C35.2384 8.73269 37.6989 11.1932 37.6989 14.2182V16.0886C37.7008 16.8189 37.9849 17.5092 38.5003 18.0282L39.8079 19.3359C40.8442 20.3667 41.4179 21.7399 41.4234 23.206C41.427 24.663 40.8661 26.0344 39.8443 27.0707C39.8261 27.0889 39.8097 27.1089 39.7915 27.1253L38.4985 28.4184C37.9849 28.9338 37.7008 29.624 37.6989 30.3562V32.2266C37.6989 35.2498 35.2384 37.7103 32.2152 37.7103H30.343C29.6126 37.7121 28.9224 37.9963 28.4052 38.5117L27.0957 39.8193C26.0285 40.8938 24.6188 41.4329 23.211 41.4329Z" fill="white"/>
<path d="M13.9365 28.4296C13.8777 28.4296 13.8287 28.4296 13.7896 28.4296C13.7602 28.4394 13.721 28.4443 13.672 28.4443C13.4369 28.4443 13.2508 28.3856 13.1137 28.268C12.9863 28.1603 12.9227 28.0231 12.9227 27.8566C12.9227 27.6705 13.0304 27.4844 13.2459 27.2983C13.863 27.0142 14.392 26.6567 14.8328 26.2257C15.2736 25.7947 15.6213 25.2756 15.876 24.6682C15.6605 24.7466 15.445 24.8054 15.2295 24.8446C15.014 24.8739 14.7936 24.8886 14.5683 24.8886C14.0491 24.8886 13.5986 24.8054 13.2165 24.6389C12.8443 24.4723 12.5309 24.2617 12.2762 24.0071C12.0215 23.7426 11.8305 23.4487 11.7032 23.1255C11.5856 22.8022 11.5269 22.4839 11.5269 22.1704C11.5269 21.808 11.6003 21.4456 11.7472 21.0832C11.8942 20.7109 12.1048 20.3828 12.379 20.0987C12.6631 19.8049 13.0108 19.5698 13.4222 19.3935C13.8434 19.2074 14.3283 19.1143 14.8768 19.1143C15.3862 19.1143 15.827 19.2123 16.1992 19.4082C16.5714 19.6041 16.8751 19.8637 17.1102 20.1869C17.3453 20.5003 17.5167 20.8628 17.6244 21.2742C17.7322 21.6856 17.7763 22.1068 17.7567 22.5378C17.7567 23.1745 17.6685 23.7867 17.4922 24.3744C17.3257 24.9523 17.0759 25.496 16.7429 26.0053C16.4196 26.5049 16.018 26.9603 15.538 27.3718C15.0679 27.7832 14.534 28.1358 13.9365 28.4296ZM14.5536 23.6104C14.8573 23.6104 15.1609 23.5467 15.4646 23.4193C15.778 23.292 16.0621 23.1304 16.3168 22.9345C16.2972 22.9345 16.2923 22.8904 16.3021 22.8022C16.3217 22.7043 16.3314 22.6112 16.3314 22.5231C16.3314 22.2488 16.307 21.9843 16.258 21.7297C16.209 21.4652 16.1257 21.235 16.0082 21.0391C15.8907 20.8334 15.7339 20.6718 15.538 20.5542C15.3421 20.4269 15.0972 20.3632 14.8034 20.3632C14.5585 20.3632 14.3234 20.4122 14.0981 20.5101C13.8826 20.5983 13.6867 20.7256 13.5104 20.8922C13.3439 21.0489 13.2116 21.2399 13.1137 21.4652C13.0157 21.6905 12.9668 21.9305 12.9668 22.1851C12.9668 22.4104 13.0108 22.6112 13.099 22.7876C13.1969 22.9541 13.3194 23.101 13.4663 23.2283C13.6132 23.3557 13.7798 23.4536 13.9659 23.5222C14.1618 23.581 14.3577 23.6104 14.5536 23.6104Z" fill="white"/>
<path d="M21.0453 28.4296C20.9866 28.4296 20.9376 28.4296 20.8984 28.4296C20.869 28.4394 20.8298 28.4443 20.7809 28.4443C20.5458 28.4443 20.3597 28.3856 20.2225 28.268C20.0952 28.1603 20.0315 28.0231 20.0315 27.8566C20.0315 27.6705 20.1393 27.4844 20.3548 27.2983C20.9719 27.0142 21.5008 26.6567 21.9416 26.2257C22.3824 25.7947 22.7301 25.2756 22.9848 24.6682C22.7693 24.7466 22.5538 24.8054 22.3383 24.8446C22.1228 24.8739 21.9024 24.8886 21.6771 24.8886C21.158 24.8886 20.7074 24.8054 20.3254 24.6389C19.9532 24.4723 19.6397 24.2617 19.385 24.0071C19.1304 23.7426 18.9393 23.4487 18.812 23.1255C18.6945 22.8022 18.6357 22.4839 18.6357 22.1704C18.6357 21.808 18.7092 21.4456 18.8561 21.0832C19.003 20.7109 19.2136 20.3828 19.4879 20.0987C19.7719 19.8049 20.1197 19.5698 20.5311 19.3935C20.9523 19.2074 21.4371 19.1143 21.9857 19.1143C22.495 19.1143 22.9358 19.2123 23.3081 19.4082C23.6803 19.6041 23.9839 19.8637 24.219 20.1869C24.4541 20.5003 24.6255 20.8628 24.7333 21.2742C24.841 21.6856 24.8851 22.1068 24.8655 22.5378C24.8655 23.1745 24.7773 23.7867 24.601 24.3744C24.4345 24.9523 24.1847 25.496 23.8517 26.0053C23.5284 26.5049 23.1268 26.9603 22.6469 27.3718C22.1767 27.7832 21.6429 28.1358 21.0453 28.4296ZM21.6624 23.6104C21.9661 23.6104 22.2697 23.5467 22.5734 23.4193C22.8869 23.292 23.1709 23.1304 23.4256 22.9345C23.406 22.9345 23.4011 22.8904 23.4109 22.8022C23.4305 22.7043 23.4403 22.6112 23.4403 22.5231C23.4403 22.2488 23.4158 21.9843 23.3668 21.7297C23.3178 21.4652 23.2346 21.235 23.117 21.0391C22.9995 20.8334 22.8428 20.6718 22.6469 20.5542C22.451 20.4269 22.2061 20.3632 21.9122 20.3632C21.6673 20.3632 21.4323 20.4122 21.207 20.5101C20.9915 20.5983 20.7956 20.7256 20.6192 20.8922C20.4527 21.0489 20.3205 21.2399 20.2225 21.4652C20.1246 21.6905 20.0756 21.9305 20.0756 22.1851C20.0756 22.4104 20.1197 22.6112 20.2078 22.7876C20.3058 22.9541 20.4282 23.101 20.5752 23.2283C20.7221 23.3557 20.8886 23.4536 21.0747 23.5222C21.2706 23.581 21.4665 23.6104 21.6624 23.6104Z" fill="white"/>
<path d="M32.8393 18.1452C32.9862 18.008 33.1723 17.9395 33.3976 17.9395C33.5837 17.9395 33.7405 17.9982 33.8678 18.1158C34.0049 18.2333 34.0735 18.3803 34.0735 18.5566C34.0735 18.6056 34.0686 18.6545 34.0588 18.7035C34.049 18.7427 34.0343 18.7868 34.0147 18.8357L30.8557 23.3759L27.4764 28.2098C27.3882 28.3274 27.2854 28.4058 27.1678 28.4449C27.0503 28.4841 26.9425 28.5037 26.8446 28.5037C26.6585 28.5037 26.4968 28.4498 26.3597 28.3421C26.2324 28.2343 26.1687 28.0874 26.1687 27.9013C26.1687 27.8327 26.1785 27.7642 26.1981 27.6956C26.2177 27.6172 26.252 27.5389 26.3009 27.4605C26.8887 26.6377 27.447 25.8443 27.9759 25.0802C28.5049 24.3162 29.0338 23.5571 29.5628 22.8028C30.0819 22.0584 30.6109 21.3042 31.1496 20.5401C31.6883 19.7761 32.2467 18.9827 32.8246 18.1599L32.8393 18.1452ZM25.4487 20.2904C25.4683 19.9279 25.5467 19.6145 25.6838 19.35C25.821 19.0855 25.9924 18.8651 26.1981 18.6888C26.4038 18.5125 26.6389 18.3852 26.9033 18.3068C27.1678 18.2186 27.4323 18.1746 27.6968 18.1746C27.971 18.1746 28.2404 18.2186 28.5049 18.3068C28.7694 18.395 29.0044 18.5272 29.2101 18.7035C29.4256 18.8798 29.5971 19.1002 29.7244 19.3647C29.8517 19.6194 29.9154 19.9132 29.9154 20.2463C29.9154 20.5793 29.8468 20.883 29.7097 21.1572C29.5824 21.4315 29.4109 21.6715 29.1954 21.8772C28.98 22.0731 28.7351 22.2249 28.4608 22.3327C28.1865 22.4404 27.9025 22.4943 27.6086 22.4943C27.3539 22.4943 27.0993 22.4453 26.8446 22.3474C26.5997 22.2494 26.3744 22.1074 26.1687 21.9213C25.9728 21.7352 25.8063 21.505 25.6691 21.2307C25.5418 20.9564 25.4683 20.643 25.4487 20.2904ZM30.5031 26.241C30.5227 25.8884 30.5962 25.5847 30.7235 25.33C30.8606 25.0656 31.0321 24.8501 31.2378 24.6835C31.4435 24.5072 31.6737 24.3799 31.9283 24.3015C32.183 24.2134 32.4426 24.1693 32.7071 24.1693C32.9715 24.1693 33.2311 24.2134 33.4858 24.3015C33.7503 24.3897 33.9853 24.5219 34.191 24.6982C34.4065 24.8648 34.578 25.0754 34.7053 25.33C34.8326 25.5749 34.8963 25.8639 34.8963 26.1969C34.8963 26.5397 34.8326 26.8483 34.7053 27.1226C34.5878 27.3968 34.4261 27.627 34.2204 27.8131C34.0147 27.9992 33.7747 28.1413 33.5005 28.2392C33.236 28.3372 32.9617 28.3862 32.6777 28.3862C32.4328 28.3862 32.1879 28.3421 31.943 28.2539C31.6981 28.1756 31.4729 28.0482 31.2672 27.8719C31.0615 27.6956 30.89 27.4752 30.7529 27.2107C30.6158 26.9365 30.5325 26.6132 30.5031 26.241ZM27.638 19.4382C27.5205 19.4382 27.4176 19.4675 27.3294 19.5263C27.2511 19.5753 27.1825 19.6439 27.1237 19.732C27.065 19.8104 27.016 19.9034 26.9768 20.0112C26.9474 20.1091 26.9229 20.2071 26.9033 20.305C26.9327 20.6087 27.0258 20.8291 27.1825 20.9662C27.3392 21.1034 27.5156 21.1719 27.7115 21.1719C27.8976 21.1719 28.069 21.0985 28.2257 20.9515C28.3922 20.8046 28.4755 20.5842 28.4755 20.2904C28.4755 20.0553 28.3873 19.8545 28.211 19.6879C28.0445 19.5214 27.8535 19.4382 27.638 19.4382ZM32.6924 25.4623C32.4377 25.4623 32.2565 25.5455 32.1487 25.712C32.0508 25.8786 31.9871 26.0549 31.9577 26.241C31.9871 26.5251 32.0753 26.7406 32.2222 26.8875C32.3691 27.0246 32.5405 27.0932 32.7364 27.0932C32.903 27.0932 33.0646 27.0246 33.2213 26.8875C33.378 26.7406 33.4564 26.5251 33.4564 26.241C33.4564 25.9961 33.378 25.8051 33.2213 25.668C33.0646 25.5308 32.8883 25.4623 32.6924 25.4623Z" fill="white"/>
</g>
<defs>
<clipPath id="clip0_3_19592">
<rect width="37" height="37" fill="white" transform="translate(5 5)"/>
</clipPath>
</defs>
</svg>
