<svg width="46" height="46" viewBox="0 0 46 46" fill="none" xmlns="http://www.w3.org/2000/svg">
<rect width="46" height="46" rx="13" fill="#0328EE"/>
<g clip-path="url(#clip0_3_10644)">
<path d="M35.5435 15.6543H12.395C10.1859 15.6543 8.39502 17.4452 8.39502 19.6543V30.7254C8.39502 32.9345 10.1859 34.7254 12.395 34.7254H35.5435C37.7527 34.7254 39.5435 32.9345 39.5435 30.7254V19.6543C39.5435 17.4452 37.7527 15.6543 35.5435 15.6543Z" fill="white" fill-opacity="0.4"/>
<path d="M32.3587 12.1641H10C7.79086 12.1641 6 13.9549 6 16.1641V27.2352C6 29.4443 7.79086 31.2352 10 31.2352H32.3587C34.5678 31.2352 36.3587 29.4443 36.3587 27.2352V16.1641C36.3587 13.9549 34.5678 12.1641 32.3587 12.1641Z" fill="white"/>
<path d="M21.1794 25.7446C23.4137 25.7446 25.225 23.9333 25.225 21.6989C25.225 19.4646 23.4137 17.6533 21.1794 17.6533C18.9451 17.6533 17.1338 19.4646 17.1338 21.6989C17.1338 23.9333 18.9451 25.7446 21.1794 25.7446Z" fill="#0328EE"/>
<path d="M12.0644 20.2929C13.2046 20.2929 14.1288 19.3686 14.1288 18.2285C14.1288 17.0883 13.2046 16.1641 12.0644 16.1641C10.9243 16.1641 10 17.0883 10 18.2285C10 19.3686 10.9243 20.2929 12.0644 20.2929Z" fill="#0328EE"/>
<path d="M30.2944 27.2353C31.4345 27.2353 32.3588 26.311 32.3588 25.1709C32.3588 24.0307 31.4345 23.1064 30.2944 23.1064C29.1542 23.1064 28.23 24.0307 28.23 25.1709C28.23 26.311 29.1542 27.2353 30.2944 27.2353Z" fill="#0328EE"/>
</g>
<defs>
<clipPath id="clip0_3_10644">
<rect width="34" height="23" fill="white" transform="translate(6 12)"/>
</clipPath>
</defs>
</svg>
