<svg width="68" height="69" viewBox="0 0 68 69" fill="none" xmlns="http://www.w3.org/2000/svg">
<rect y="0.984375" width="68" height="68" rx="20" fill="#0328EE"/>
<g clip-path="url(#clip0_40_19823)">
<path d="M31.2601 51.8023C41.7084 51.8023 50.1784 43.2791 50.1784 32.7652C50.1784 22.2513 41.7084 13.7281 31.2601 13.7281C20.8118 13.7281 12.3418 22.2513 12.3418 32.7652C12.3418 43.2791 20.8118 51.8023 31.2601 51.8023Z" fill="white"/>
<path opacity="0.4" d="M53.4256 57.6296C52.6907 57.6058 51.9919 57.3035 51.4692 56.7831L46.9891 51.5464C46.0286 50.668 45.95 49.1752 46.813 48.1996C47.2169 47.7909 47.7661 47.5611 48.339 47.5611C48.9118 47.5611 49.461 47.7909 49.865 48.1996L55.4994 52.7079C56.311 53.5386 56.5614 54.7718 56.1388 55.8563C55.7161 56.9408 54.6994 57.674 53.543 57.7281L53.4256 57.6296Z" fill="white"/>
</g>
<defs>
<clipPath id="clip0_40_19823">
<rect width="45" height="45" fill="white" transform="translate(12 12.9844)"/>
</clipPath>
</defs>
</svg>
