<svg width="127" height="25" viewBox="0 0 127 25" fill="none" xmlns="http://www.w3.org/2000/svg">
<g clip-path="url(#clip0_17_58907)">
<g clip-path="url(#clip1_17_58907)">
<path d="M24.1286 14.2175C24.0601 14.0421 17.9864 2.50887 17.895 2.33346C17.5754 1.58797 17.0045 0.952111 16.251 0.513586C14.3558 -0.538873 11.9354 0.0750619 10.8394 1.89494C10.0859 3.14473 10.1316 4.61379 10.8622 5.77588C10.9307 5.92937 16.7305 16.9802 16.8447 17.1556C16.9132 17.331 17.0045 17.4845 17.0958 17.6599C17.4155 18.4054 17.9864 19.0413 18.7399 19.4798C20.6351 20.5322 23.0555 19.9402 24.1515 18.1203C24.9278 16.8706 24.8593 15.3796 24.1286 14.2175Z" fill="white" fill-opacity="0.4"/>
<path d="M17.4462 6.41005C18.1146 5.72948 18.5294 4.80742 18.5294 3.79754C18.5294 1.71192 16.7548 -0.000488281 14.5424 -0.000488281C13.1826 -0.000488281 11.9842 0.636175 11.2698 1.6241C11.1315 1.75582 1.19842 13.4353 1.08319 13.589C0.414838 14.2695 0 15.1916 0 16.2015C0 18.3091 1.79763 19.9995 3.98705 19.9995C5.3468 19.9995 6.54522 19.3628 7.25966 18.3749C7.39794 18.2212 17.354 6.56373 17.4462 6.41005Z" fill="white"/>
<path d="M33.9183 6.41005C34.5858 5.72948 35.0001 4.80742 35.0001 3.79754C35.0001 1.68996 33.2047 -0.000488281 31.018 -0.000488281C29.66 -0.000488281 28.463 0.636175 27.7495 1.6241C27.6114 1.75582 17.6676 13.4353 17.5525 13.589C16.885 14.2695 16.4707 15.1916 16.4707 16.2015C16.4707 18.3091 18.2661 19.9995 20.4528 19.9995C21.8109 19.9995 23.0078 19.3628 23.7213 18.3749C23.8825 18.2212 33.8032 6.56373 33.9183 6.41005Z" fill="white"/>
</g>
</g>
<path d="M47 10.1763C47 8.5928 47.3426 7.1844 48.0277 5.9511C48.7129 4.7026 49.6645 3.7357 50.8826 3.0505C52.1159 2.3502 53.5091 2 55.0621 2C56.9654 2 58.5946 2.5024 59.9497 3.5073C61.3048 4.5122 62.2107 5.8826 62.6675 7.6183H58.3738C58.054 6.9484 57.5973 6.4383 57.0034 6.0881C56.4249 5.7379 55.7625 5.5628 55.0164 5.5628C53.8136 5.5628 52.8391 5.9815 52.0931 6.819C51.347 7.6564 50.974 8.7755 50.974 10.1763C50.974 11.5771 51.347 12.6962 52.0931 13.5336C52.8391 14.3711 53.8136 14.7898 55.0164 14.7898C55.7625 14.7898 56.4249 14.6147 57.0034 14.2645C57.5973 13.9143 58.054 13.4042 58.3738 12.7343H62.6675C62.2107 14.47 61.3048 15.8404 59.9497 16.8453C58.5946 17.835 56.9654 18.3298 55.0621 18.3298C53.5091 18.3298 52.1159 17.9872 50.8826 17.3021C49.6645 16.6017 48.7129 15.6348 48.0277 14.4015C47.3426 13.1682 47 11.7598 47 10.1763ZM68.9646 7.5955C69.4214 6.8951 69.9924 6.347 70.6776 5.9511C71.3627 5.54 72.124 5.3344 72.9615 5.3344V9.4683H71.888C70.9136 9.4683 70.1827 9.6815 69.6955 10.1078C69.2083 10.5189 68.9646 11.2497 68.9646 12.3003V18.2156H65.0592V5.4715H68.9646V7.5955ZM87.8464 5.4715L79.8528 24.268H75.6504L78.5738 17.7817L73.3893 5.4715H77.7516L80.6978 13.4423L83.6212 5.4715H87.8464ZM93.1644 7.2758C93.5444 6.6819 94.0704 6.2023 94.7404 5.8369C95.4104 5.4715 96.1944 5.2888 97.0924 5.2888C98.1434 5.2888 99.0944 5.5552 99.9474 6.0881C100.8 6.621 101.47 7.3823 101.957 8.372C102.459 9.3617 102.71 10.5113 102.71 11.8207C102.71 13.1301 102.459 14.2873 101.957 15.2922C101.47 16.2819 100.8 17.0508 99.9474 17.599C99.0944 18.1319 98.1434 18.3983 97.0924 18.3983C96.2094 18.3983 95.4254 18.2156 94.7404 17.8502C94.0704 17.4848 93.5444 17.0128 93.1644 16.4342V24.2908H89.2587V5.4715H93.1644V7.2758ZM98.7364 11.8207C98.7364 10.8462 98.4624 10.0849 97.9144 9.5368C97.3814 8.9735 96.7194 8.6918 95.9274 8.6918C95.1514 8.6918 94.4884 8.9735 93.9404 9.5368C93.4074 10.1002 93.1414 10.8691 93.1414 11.8436C93.1414 12.818 93.4074 13.5869 93.9404 14.1503C94.4884 14.7136 95.1514 14.9953 95.9274 14.9953C96.7044 14.9953 97.3664 14.7136 97.9144 14.1503C98.4624 13.5717 98.7364 12.7952 98.7364 11.8207ZM111.862 14.904V18.2156H109.875C108.459 18.2156 107.355 17.873 106.564 17.1879C105.772 16.4875 105.376 15.3531 105.376 13.7849V8.7146H103.823V5.4715H105.376V2.3654H109.281V5.4715H111.839V8.7146H109.281V13.8305C109.281 14.2112 109.373 14.4853 109.556 14.6527C109.738 14.8202 110.043 14.904 110.469 14.904H111.862ZM119.839 18.3983C118.59 18.3983 117.464 18.1319 116.459 17.599C115.469 17.0661 114.685 16.3048 114.106 15.3151C113.543 14.3254 113.261 13.1682 113.261 11.8436C113.261 10.5341 113.55 9.3846 114.129 8.3949C114.708 7.39 115.499 6.621 116.504 6.0881C117.509 5.5552 118.636 5.2888 119.884 5.2888C121.133 5.2888 122.26 5.5552 123.265 6.0881C124.27 6.621 125.061 7.39 125.64 8.3949C126.218 9.3846 126.508 10.5341 126.508 11.8436C126.508 13.153 126.211 14.3102 125.617 15.3151C125.038 16.3048 124.239 17.0661 123.219 17.599C122.214 18.1319 121.087 18.3983 119.839 18.3983ZM119.839 15.0182C120.585 15.0182 121.217 14.7441 121.734 14.196C122.267 13.6478 122.534 12.8637 122.534 11.8436C122.534 10.8234 122.275 10.0393 121.757 9.4911C121.255 8.943 120.631 8.6689 119.884 8.6689C119.123 8.6689 118.491 8.943 117.989 9.4911C117.486 10.024 117.235 10.8082 117.235 11.8436C117.235 12.8637 117.479 13.6478 117.966 14.196C118.468 14.7441 119.093 15.0182 119.839 15.0182Z" fill="white"/>
<defs>
<clipPath id="clip0_17_58907">
<rect width="35" height="20" fill="white"/>
</clipPath>
<clipPath id="clip1_17_58907">
<rect width="35" height="20" fill="white"/>
</clipPath>
</defs>
</svg>
